<svg id="Layer_1" data-name="Layer 1"
    xmlns="http://www.w3.org/2000/svg" width="550px" height="550px" viewBox="0 0 1000 1000">
    <defs>
        <style>
        @-webkit-keyframes sound {
            0% {
             opacity: 1;
                stroke: #fff !important;
                stroke-width:2.5px !important;
            }
            30% {
             opacity: 8;
                stroke: rgb(31, 187, 96) !important;
                stroke-width:3.5px !important;
                stroke: rgb(31, 187, 96) !important;

            }
            50% {
             opacity: 5;
                stroke: rgb(31, 187, 96) !important;
                stroke-width:6.5px !important;
                stroke: rgb(31, 187, 96) !important;

            }
            70% {
             opacity: 4;
                stroke: rgb(31, 187, 96) !important;
                stroke-width:3.5px !important;
                stroke: rgb(31, 187, 96) !important;

            }
            100% {
             opacity:3;
                stroke: #fff !important;
                stroke-width:2.5px !important;
            }
        }
        @keyframes sound {
            0% {
                opacity: 1;
                fill: green;
                stroke-width:3.5px !important;
            }
            30% {
                opacity: .8;
                fill: rgb(31, 187, 96);
                stroke-width:3.5px !important;
            }
            50% {
                opacity: .5;
                fill: rgb(31, 187, 96);
                stroke-width:3.5px !important;
            }
            70% {
                opacity: .4
                stroke-width:3.5px !important;
            }
            100% {
                opacity: .3;
                <!-- stroke-dashoffset: 1000; -->
            }
        }
        .active {
            stroke-width:3.5px !important;
            stroke: rgb(31, 187, 96) !important;
            animation: sound 2.5s linear; 
            -webkit-animation: sound 2.5s linear;
            <!-- stroke-dasharray: 100; -->
            transition: all 1s ease-in-out;
            -webkit-transition: all 1s ease-in-out;
        }
        .cls-1{fill:#e6e6e6;}.cls-2{fill:#594436;}.cls-3{fill:#b5b5b5;}.cls-4{fill:#edab5a;}.cls-5{fill:#fff;opacity:0.14;}.cls-6{fill:#75787a;}.cls-7{fill:#3f3f3f;}.cls-8{fill:#ebffff;}.cls-9{fill:#adadad;opacity:0.26;}.cls-10{fill:#b3b3b3;}</style>
    </defs>
    <title>Artboard 3</title>
    <polygon class="cls-1" points="383.03 321.57 382.16 301.61 317.75 310.39 318.61 330.37 383.03 321.57"/>
    <polygon class="cls-1" points="382.94 449.69 382.04 429.8 317.62 438.59 318.51 458.53 382.94 449.69"/>
    <polygon class="cls-1" points="382.32 593.63 381.42 573.73 317 582.49 317.87 602.41 382.32 593.63"/>
    <rect id="a-switch" class="cls-1" x="273.73" y="410.87" width="55.74" height="78.69" rx="20.24" ry="20.24" transform="translate(607.59 897.46) rotate(179.44)"/>
    <rect id="bottom-e-switch" class="cls-1" x="275.11" y="555.13" width="55.74" height="72.13" rx="20.24" ry="20.24" transform="translate(611.72 1179.4) rotate(179.44)"/>
    <rect id="d-switch" class="cls-1" x="272.48" y="283.01" width="55.74" height="78.69" rx="20.24" ry="20.24" transform="translate(603.83 641.75) rotate(179.44)"/>
    <polygon class="cls-1" points="614.37 319.31 614.85 299.34 679.43 306.86 678.95 326.84 614.37 319.31"/>
    <polygon class="cls-1" points="616.97 447.4 617.48 427.49 682.06 435.02 681.55 454.98 616.97 447.4"/>
    <polygon class="cls-1" points="620.4 591.3 620.92 571.39 685.5 578.89 685.02 598.82 620.4 591.3"/>
    <rect id="b-switch" class="cls-1" x="670.44" y="406.99" width="55.74" height="78.69" rx="20.24" ry="20.24" transform="translate(-4.33 6.85) rotate(-0.56)"/>
    <rect id="top-e-switch" class="cls-1" x="671.82" y="551.25" width="55.74" height="72.13" rx="20.24" ry="20.24" transform="translate(-5.71 6.87) rotate(-0.56)"/>
    <rect id="g-switch" class="cls-1" x="669.19" y="279.12" width="55.74" height="78.69" rx="20.24" ry="20.24" transform="translate(-3.08 6.84) rotate(-0.56)"/>
    <path class="cls-2" d="M584.94,814.38,419.39,814c0,2.25-1.63,100-4.06,249.83l172.25-1.69C586,913.54,585,816.63,584.94,814.38Z"/>
    <polygon class="cls-3" points="591.02 961.42 591.02 969.15 412.34 969.2 412.34 961.48 591.02 961.42"/>
    <path class="cls-4" d="M485.17,138c-9.63-1.42-29,23.35-60,35.45-23.17,9-57.63,6.58-73.66,4.75a6.6,6.6,0,0,0-7.26,7.66c5.44,32.16,23.55,146.37,24.7,247.72,1.36,119.36-24.57,233-25.13,242.88s26.19,20.18,40.06,42.21,29.4,37.51,29.9,52c.33,9.61.5,22.57.58,30.24a6.62,6.62,0,0,0,6.52,6.55l39.53.63,38.79.63v0h1.24l1.57,0v0l26.93-.32,55-.66a6.62,6.62,0,0,0,6.54-6.52c.11-7.56.33-20.27.7-29.83.57-14.51,12.57-30.28,26.54-52.26s40.75-32.21,40.23-42-26-123.62-24.12-243c1.57-101.34,20.16-215.48,25.73-247.61a6.6,6.6,0,0,0-7.23-7.69c-16,1.76-50.5,4.07-73.63-5.06-31-12.24-47.64-35.77-59.88-35.7Z"/>
    <path class="cls-5" d="M531,750c-23,13-53,19-77,10-22-8-33-34-56-44a78.42,78.42,0,0,0-18.35-4.43,65.84,65.84,0,0,1,5.2,7.1c13.87,22,29.4,37.51,29.9,52s.63,36.69.63,36.69l46,.73,38.79.63v0h1.24l1.57,0v0l26.93-.32,61.44-.74s.21-21.77.78-36.28,12.57-30.28,26.54-52.26,40.75-32.21,40.23-42c-.11-2.16-1.43-9.36-3.41-20.54C637,660.42,619.6,667.86,605,681,579,705,561,734,531,750Z"/>
    <path class="cls-6" d="M420.35,555.2A24.34,24.34,0,1,1,396,579.49,24.34,24.34,0,0,1,420.35,555.2Z"/>
    <path class="cls-7" d="M420.58,605.1h-.33a25.57,25.57,0,0,1-18-43.69A25.08,25.08,0,0,1,420.36,554h0a25.57,25.57,0,0,1,.22,51.13Zm-.52-48.67a23.11,23.11,0,0,0,.2,46.21h.29a23.11,23.11,0,0,0-.2-46.21h-.29Z"/>
    <path class="cls-6" d="M420.33,567.6a11.94,11.94,0,1,1-12,11.92A11.94,11.94,0,0,1,420.33,567.6Z"/>
    <path class="cls-7" d="M420.43,592.71h-.15a13.17,13.17,0,1,1,.05-26.34h0a13.17,13.17,0,0,1,.09,26.33Zm-.22-23.87a10.71,10.71,0,0,0,.08,21.42h.12a10.71,10.71,0,0,0-.08-21.42Z"/>
    <path class="cls-6" d="M584.06,555.54a24.34,24.34,0,1,1-24.39,24.29A24.33,24.33,0,0,1,584.06,555.54Z"/>
    <path class="cls-7" d="M584.28,605.44H584a25.57,25.57,0,0,1-.21-51.13h.32a25.57,25.57,0,0,1,.21,51.13Zm-.51-48.67a23.1,23.1,0,1,0,.29,0h-.29Z"/>
    <circle class="cls-6" cx="584.01" cy="579.88" r="11.94" transform="translate(2.87 1162.64) rotate(-89.88)"/>
    <path class="cls-7" d="M584.15,593H584a13.18,13.18,0,0,1-13.14-13.19A13.32,13.32,0,0,1,584,566.72a13.17,13.17,0,0,1,.11,26.33Zm-.24-23.87a10.88,10.88,0,1,0,.13,0Z"/>
    <circle class="cls-6" cx="419.57" cy="444.27" r="24.34" transform="translate(-25.55 862.93) rotate(-89.88)"/>
    <path class="cls-7" d="M419.84,469.83h-.32a25.62,25.62,0,1,1,.32,0Zm-.51-48.67a23.11,23.11,0,1,0,.29,0h-.29Z"/>
    <circle class="cls-6" cx="419.57" cy="444.27" r="11.94" transform="translate(-25.54 862.94) rotate(-89.88)"/>
    <path class="cls-7" d="M419.71,457.43h-.17a13.17,13.17,0,0,1-.1-26.33h.16a13.17,13.17,0,0,1,.11,26.33Zm-.24-23.87a10.71,10.71,0,0,0,.08,21.41,10.31,10.31,0,0,0,7.57-3.12,10.61,10.61,0,0,0,3.15-7.56,10.72,10.72,0,0,0-10.68-10.73Z"/>
    <path class="cls-6" d="M585.35,420.27A24.34,24.34,0,1,1,561,444.56,24.34,24.34,0,0,1,585.35,420.27Z"/>
    <path class="cls-7" d="M585.56,470.18h-.32a25.57,25.57,0,0,1,.11-51.14h0a25.57,25.57,0,0,1,.21,51.14Zm-.49-48.68a23.11,23.11,0,1,0,.27,0Z"/>
    <circle class="cls-6" cx="585.3" cy="444.61" r="11.94" transform="translate(139.5 1029.01) rotate(-89.88)"/>
    <path class="cls-7" d="M585.43,457.78h-.15a13.17,13.17,0,0,1-.11-26.33h.16a13.17,13.17,0,0,1,.1,26.33Zm-.24-23.88a10.78,10.78,0,1,0,.13,0h-.13Z"/>
    <circle class="cls-6" cx="422.1" cy="310.87" r="24.34" transform="translate(110.36 732.33) rotate(-89.88)"/>
    <path class="cls-7" d="M422.35,336.44H422a25.57,25.57,0,0,1,.11-51.14h0a25.57,25.57,0,0,1,.2,51.14Zm-.48-48.68a23.11,23.11,0,0,0,.18,46.22h.28a23.11,23.11,0,0,0-.18-46.22Z"/>
    <circle class="cls-6" cx="422.1" cy="310.87" r="11.94" transform="matrix(0, -1, 1, 0, 110.37, 732.34)"/>
    <path class="cls-7" d="M422.23,324h-.15a13.17,13.17,0,0,1-9.27-22.49,13.66,13.66,0,0,1,9.32-3.84,13.17,13.17,0,0,1,.1,26.33ZM422,300.17a10.71,10.71,0,0,0,.09,21.41h.12a10.71,10.71,0,0,0-.08-21.41H422Z"/>
    <path class="cls-6" d="M583.84,286.87a24.34,24.34,0,1,1-24.4,24.29A24.35,24.35,0,0,1,583.84,286.87Z"/>
    <path class="cls-7" d="M584,336.78h-.31a25.57,25.57,0,0,1-.19-51.14h.3a25.57,25.57,0,0,1,.2,51.14Zm-.48-48.68a23.11,23.11,0,0,0,.17,46.22H584a23.11,23.11,0,0,0-.19-46.22Z"/>
    <path class="cls-6" d="M583.81,299.27a11.94,11.94,0,1,1-12,11.91A11.94,11.94,0,0,1,583.81,299.27Z"/>
    <path class="cls-7" d="M583.93,324.37h-.17a13.17,13.17,0,0,1-9.26-22.49,13.31,13.31,0,0,1,9.32-3.84,13.17,13.17,0,0,1,.11,26.33Zm-.25-23.87a10.87,10.87,0,1,0,.13,0h-.13Z"/>
    <ellipse class="cls-1" cx="421.95" cy="310.56" rx="28.94" ry="28.92" transform="translate(-3.02 4.14) rotate(-0.56)"/>
    <ellipse class="cls-1" cx="418.87" cy="443.87" rx="28.94" ry="28.92" transform="translate(-4.32 4.12) rotate(-0.56)"/>
    <ellipse class="cls-1" cx="586.35" cy="444.86" rx="28.94" ry="28.92" transform="translate(-4.32 5.76) rotate(-0.56)"/>
    <ellipse class="cls-1" cx="584.17" cy="311.61" rx="28.94" ry="28.92" transform="translate(-3.02 5.73) rotate(-0.56)"/>
    <ellipse class="cls-1" cx="420.2" cy="579.76" rx="28.94" ry="28.92" transform="translate(-5.65 4.14) rotate(-0.56)"/>
    <ellipse class="cls-1" cx="584.17" cy="580.79" rx="28.94" ry="28.92" transform="translate(-5.65 5.74) rotate(-0.56)"/>
    <path class="cls-3" d="M592.41,808.72h0c0,4-4.5,7.16-10,7.15L421,815.53c-5.54,0-10-3.23-10-7.19h0c0-4,4.5-7.16,10-7.15l161.4.34C587.94,801.55,592.42,804.77,592.41,808.72Z"/>
    <path id="D" class="cls-8" d="M493.75,820.56l.57-16.11a1.66,1.66,0,0,0,0-.27L431.69,321.43a1.64,1.64,0,1,0-3.25.42l62.6,482.48a1.64,1.64,0,0,1,0,.27l-.58,15.89-2,242.66,3.28,0Z"/>
    <ellipse class="cls-9" cx="420.22" cy="313.21" rx="15.32" ry="15.31" transform="translate(-3.04 4.13) rotate(-0.56)"/>
    <ellipse class="cls-9" cx="582.44" cy="314.25" rx="15.32" ry="15.31" transform="translate(-3.05 5.71) rotate(-0.56)"/>
    <path id="G" class="cls-8" d="M524.86,804.34,526.15,781l46.23-468.64a1.64,1.64,0,1,0-3.26-.32L522.88,780.75l-1.29,23.49-1.05,258.59,3.28,0Z"/>
    <path id="A" class="cls-8" d="M460.17,822.59l.78-18.9a2.46,2.46,0,0,0,0-.31L430.89,454a2.46,2.46,0,0,0-2.66-2.24h0a2.46,2.46,0,0,0-2.24,2.66l30,349a2.46,2.46,0,0,1,0,.32l-.79,18.66-2.73,241,4.92,0Z"/>
    <ellipse class="cls-9" cx="417.14" cy="446.52" rx="15.32" ry="15.31" transform="translate(-4.35 4.1) rotate(-0.56)"/>
    <ellipse class="cls-9" cx="584.62" cy="447.51" rx="15.32" ry="15.31" transform="translate(-4.35 5.74) rotate(-0.56)"/>
    <path id="B" class="cls-8" d="M552.39,823.19l-.19-19.52s0-.07,0-.1l24.72-350.31a1.23,1.23,0,0,0-1.14-1.31h0a1.23,1.23,0,0,0-1.31,1.14L549.75,803.5s0,.07,0,.1l.19,19.61.07,239.34,2.46,0Z"/>
    <ellipse class="cls-9" cx="418.47" cy="582.41" rx="15.32" ry="15.31" transform="translate(-5.68 4.12) rotate(-0.56)"/>
    <path id="Bottom_E" class="cls-8" d="M435.47,805v-.19L428.9,595.1a3.28,3.28,0,0,0-6.56.2l6.53,209.47,0,.31-4.24,258.68,6.56-.06Z"/>
    <ellipse class="cls-9" cx="582.44" cy="583.44" rx="15.32" ry="15.31" transform="translate(-5.68 5.73) rotate(-0.56)"/>
    <path id="Top_E" class="cls-8" d="M578.15,807.82l-.13-4.55-3.69-215.92a.82.82,0,0,0-1.64,0l3.69,215.92.13,4.54,1.77,254.43,1.64,0Z"/>
    <ellipse class="cls-10" cx="422.82" cy="309.68" rx="15.32" ry="15.31" transform="translate(-3.01 4.15) rotate(-0.56)"/>
    <ellipse class="cls-10" cx="585.04" cy="310.72" rx="15.32" ry="15.31" transform="translate(-3.01 5.74) rotate(-0.56)"/>
    <ellipse class="cls-10" cx="419.74" cy="442.98" rx="15.32" ry="15.31" transform="translate(-4.31 4.13) rotate(-0.56)"/>
    <ellipse class="cls-10" cx="587.22" cy="443.98" rx="15.32" ry="15.31" transform="translate(-4.32 5.77) rotate(-0.56)"/>
    <ellipse class="cls-10" cx="421.07" cy="578.88" rx="15.32" ry="15.31" transform="translate(-5.64 4.15) rotate(-0.56)"/>
    <ellipse class="cls-10" cx="585.04" cy="579.9" rx="15.32" ry="15.31" transform="translate(-5.65 5.75) rotate(-0.56)"/>
    <path class="cls-5" d="M503.15,276.28c21-.21,36.73-165.88,37.53-83.87s-15.56,148.66-36.55,148.86-38.65-66.11-39.45-148.12S482.17,276.48,503.15,276.28Z"/>
    <ellipse class="cls-5" cx="503.39" cy="463.98" rx="24.5" ry="66" transform="translate(-4.52 4.95) rotate(-0.56)"/>
</svg>