<svg id="Layer_1" data-name="Layer 1" xmlns="http://www.w3.org/2000/svg" viewBox="0 0 1000 1000"><defs><style>.cls-1{fill:#606060;opacity:0.13;}.cls-2{fill:#dedede;}.cls-19,.cls-3,.cls-4{fill:#fff;}.cls-4{opacity:0.3;}.cls-5{opacity:0.03;}.cls-6{fill:#edab5a;}.cls-7{fill:#d4d4d4;}.cls-8{fill:#3d2425;}.cls-9{opacity:0.06;}.cls-10{fill:#b5b5b5;}.cls-11{fill:#8a786a;}.cls-12,.cls-14{fill:#adadad;}.cls-12{opacity:0.26;}.cls-13,.cls-15,.cls-16,.cls-17,.cls-18{fill:none;}.cls-13,.cls-16,.cls-17,.cls-18{stroke:#fff;stroke-miterlimit:10;}.cls-13{stroke-width:5px;}.cls-16{stroke-width:4px;}.cls-17{stroke-width:3px;}.cls-18{stroke-width:2px;}.cls-19{opacity:0.19;}</style></defs><title>Artboard 1</title><path class="cls-1" d="M678.83,218.66c7.76-40.31-11.72-103.29-83.66-115.53s-103.91,46.32-110.84,77.2l-.79,3.49-38.12-7.12a33,33,0,0,0,5.61-12c3.76-15.8-4.77-30.6-19-33.07-13.29-2.3-26.76,7-31.59,21a27.54,27.54,0,0,0-25,20.74A23.6,23.6,0,0,0,389,200.77c-2,14.54,6.2,27.58,19.49,29.88,14.27,2.47,28.87-8.33,32.63-24.12A30.72,30.72,0,0,0,441.5,194l38.09,7.12c-5.86,25.63-16.23,70.91-28.34,124l-43.82-8.84a37,37,0,0,0,5.61-13c3.76-17.06-4.77-33.06-19-35.73-13.29-2.49-26.76,7.54-31.59,22.71-11.66.79-22.19,9.77-25,22.41s3.12,24.7,13.53,29.62c-2,15.71,6.2,29.79,19.49,32.28,14.27,2.67,28.87-9,32.63-26.06a35.79,35.79,0,0,0,.41-13.5L447,343.85c-9.41,41.32-19.64,86.32-29.47,129.9l-38.1-8.33A41.85,41.85,0,0,0,385,451.33c3.76-18.48-4.77-35.81-19-38.7-13.29-2.7-26.76,8.17-31.59,24.6-11.66.85-22.19,10.58-25,24.27s3.12,26.75,13.53,32.08c-2,17,6.2,32.27,19.49,35,14.27,2.89,28.87-9.74,32.63-28.22a41.92,41.92,0,0,0,.41-14.62l37.48,8.2c-11.69,51.95-22.55,100.67-30.47,137.22l-34.59-8.32a45.49,45.49,0,0,0,5.23-14.45c3.5-19-4.45-36.74-17.75-39.7-12.4-2.77-25,8.38-29.47,25.24-10.87.87-20.7,10.86-23.29,24.9s2.91,27.45,12.62,32.91c-1.84,17.46,5.78,33.11,18.18,35.87,13.31,3,26.93-10,30.43-29a47.25,47.25,0,0,0,.39-15l33.83,8.14c-4.78,22.48-7.81,37.71-8.32,42.34-3.2,29.28,3.73,33,18.65,36.2,9.85,2.11,28.07,4.92,49.58,17.62l.26.16-.26.23a147.26,147.26,0,0,1,20.62,14.77l8.31,138.85-.74,55.45H466a4.1,4.1,0,1,0,0,8.2h.06l-.55,40.94H594.6L594,965.56h.06a4.1,4.1,0,1,0,0-8.2h-.17c-1.22-90.73-2.06-152.91-2.32-172.52A7.19,7.19,0,0,0,588.83,771h-.7q0-3.43,0-6.77c.57-61.83,20.4-97.63,60.36-124.09,18.36-12.15,27.18-14.37,27.18-26.09,0-.09,0-.18,0-.27s0-.08,0-.12c0-9.85-1.75-26.37-5-45.81-5.38-32.07-14.89-72.11-27.5-103.26-20.25-50-40.5-118.19-36.77-137.89C614.77,282.31,668.17,274,678.83,218.66Z"/><path class="cls-2" d="M405.41,146.6a27.54,27.54,0,0,0-25,20.74A23.6,23.6,0,0,0,394,194.77c-2,14.54,6.2,27.58,19.49,29.88,14.27,2.47,28.87-8.33,32.63-24.12a29.11,29.11,0,0,0-3.37-22.38A32.87,32.87,0,0,0,456,158.65c3.76-15.8-4.77-30.6-19-33.07C423.71,123.27,410.24,132.56,405.41,146.6Z"/><polygon class="cls-2" points="502.3 180.38 498.18 197.69 430.04 184.96 434.15 167.65 502.3 180.38"/><path class="cls-3" d="M427.61,210.65c3.08.64,3.62,4.38.76,5.6-3.62,1.53-8.86,1.92-14.33.78s-9.91-3.55-12.3-6.34c-1.89-2.21.61-5.31,3.69-4.67l9.38,3.41a7.35,7.35,0,0,0,2,.42Z"/><path class="cls-4" d="M420.95,141.22c-3.08-.64-3.62-4.38-.76-5.6,3.62-1.53,8.86-1.92,14.33-.78s9.91,3.55,12.3,6.34c1.89,2.21-.61,5.31-3.69,4.67l-9.38-3.41a7.35,7.35,0,0,0-2-.42Z"/><ellipse class="cls-5" cx="419" cy="173.32" rx="21" ry="14.96"/><path class="cls-2" d="M367.41,284.32c-11.66.79-22.19,9.77-25,22.41s3.12,24.7,13.53,29.62c-2,15.71,6.2,29.79,19.49,32.28,14.27,2.67,28.87-9,32.63-26.06a33.61,33.61,0,0,0-3.37-24.18A35.67,35.67,0,0,0,418,297.33c3.76-17.06-4.77-33.06-19-35.73C385.71,259.12,372.24,269.14,367.41,284.32Z"/><polygon class="cls-2" points="464.3 320.8 460.18 339.5 392.04 325.75 396.15 307.05 464.3 320.8"/><path class="cls-3" d="M389.61,353.5a3.19,3.19,0,0,1,.76,6c-3.62,1.66-8.86,2.08-14.33.85s-9.91-3.84-12.3-6.84c-1.89-2.39.61-5.74,3.69-5l9.38,3.68a6.88,6.88,0,0,0,2,.45Z"/><path class="cls-4" d="M382.95,278.5a3.19,3.19,0,0,1-.76-6c3.62-1.66,8.86-2.08,14.33-.85s9.91,3.84,12.3,6.84c1.89,2.39-.61,5.74-3.69,5l-9.38-3.68a6.88,6.88,0,0,0-2-.45Z"/><ellipse class="cls-5" cx="381" cy="313.18" rx="21" ry="16.16"/><path class="cls-2" d="M310.93,587.89c-10.87.87-20.7,10.86-23.29,24.9s2.91,27.45,12.62,32.91c-1.84,17.46,5.78,33.11,18.18,35.87,13.31,3,26.93-10,30.43-29,1.84-10,.46-19.54-3.14-26.87,5.92-5.21,10.59-13.43,12.43-23.4,3.5-19-4.45-36.74-17.75-39.7C328,559.88,315.44,571,310.93,587.89Z"/><polygon class="cls-2" points="401.3 628.44 397.46 649.22 333.9 633.93 337.74 613.15 401.3 628.44"/><path class="cls-3" d="M331.64,664.77c2.87.77,3.38,5.26.7,6.72-3.37,1.84-8.27,2.31-13.37.94s-9.25-4.26-11.47-7.61c-1.76-2.65.57-6.38,3.44-5.61l8.74,4.09a5.57,5.57,0,0,0,1.84.5Z"/><path class="cls-4" d="M325.42,581.42c-2.87-.77-3.38-5.26-.7-6.72,3.37-1.84,8.27-2.31,13.37-.94s9.25,4.26,11.47,7.61c1.76,2.65-.57,6.38-3.44,5.61l-8.74-4.09a5.57,5.57,0,0,0-1.84-.5Z"/><ellipse class="cls-5" cx="323.61" cy="619.96" rx="19.59" ry="17.95"/><path class="cls-2" d="M339.41,431.24c-11.66.85-22.19,10.58-25,24.27s3.12,26.75,13.53,32.08c-2,17,6.2,32.27,19.49,35,14.27,2.89,28.87-9.74,32.63-28.22,2-9.71.49-19-3.37-26.19,6.34-5.08,11.35-13.09,13.32-22.8,3.76-18.48-4.77-35.81-19-38.7C357.71,403.94,344.24,414.8,339.41,431.24Z"/><polygon class="cls-2" points="436.3 470.76 432.18 491.01 364.04 476.11 368.15 455.86 436.3 470.76"/><path class="cls-3" d="M361.61,506.17a3.54,3.54,0,0,1,.76,6.55c-3.62,1.79-8.86,2.25-14.33.92s-9.91-4.16-12.3-7.41a3.54,3.54,0,0,1,3.69-5.47l9.38,4a6.44,6.44,0,0,0,2,.49Z"/><path class="cls-4" d="M354.95,424.94a3.54,3.54,0,0,1-.76-6.55c3.62-1.79,8.86-2.25,14.33-.92s9.91,4.16,12.3,7.41a3.54,3.54,0,0,1-3.69,5.47l-9.38-4a6.44,6.44,0,0,0-2-.49Z"/><ellipse class="cls-5" cx="353" cy="462.5" rx="21" ry="17.5"/><path class="cls-6" d="M530,687c-24.58,23-61.71,32.17-87,54.91a157.28,157.28,0,0,1,35.15,28.7h115.1c-2.13-69.75,17.59-108.61,60.22-136.83,18.36-12.15,27.18-14.37,27.18-26.09,0-9.85-1.75-26.37-5-45.81C654.83,572,635.52,585.87,614,597,575,617,561,658,530,687Z"/><path class="cls-6" d="M611.36,320.74c8.41-44.43,61.82-52.71,72.47-108.08,7.76-40.31-11.72-103.29-83.66-115.53s-103.91,46.32-110.84,77.2S378,658.81,374.76,688.09s3.73,33,18.65,36.2c9.85,2.11,28.07,4.92,49.58,17.62,25.3-22.74,62.44-31.92,87-54.91,31-29,45-70,84-90,21.52-11.13,40.83-25,61.62-35.11-5.38-32.07-14.89-72.11-27.5-103.26C627.88,408.58,607.63,340.43,611.36,320.74Z"/><ellipse class="cls-7" cx="556.76" cy="228.38" rx="33.01" ry="32.98"/><ellipse class="cls-7" cx="525.82" cy="373.25" rx="33.01" ry="32.98"/><path class="cls-8" d="M596.53,772.23H473.58s-1.19,88.76-3.07,228.27H599.6C597.72,861,596.53,772.23,596.53,772.23Z"/><path class="cls-9" d="M530,687.38c-24.58,23-61.71,32.17-87,54.91A157.28,157.28,0,0,1,478.14,771h115.1c-2.13-69.75,17.59-108.61,60.22-136.83,18.36-12.15,27.18-14.37,27.18-26.09,0-9.85-1.75-26.37-5-45.81-20.79,10.1-40.11,24-61.62,35.11C575,617.38,561,658.38,530,687.38Z"/><path class="cls-10" d="M603.21,955.47a4.1,4.1,0,0,1-4.1,4.1H471a4.1,4.1,0,0,1-4.1-4.1h0a4.1,4.1,0,0,1,4.1-4.1h128.1a4.1,4.1,0,0,1,4.1,4.1Z"/><path class="cls-11" d="M601,772.22a7.2,7.2,0,0,1-7.2,7.19H476a7.2,7.2,0,0,1-7.2-7.19h0A7.2,7.2,0,0,1,476,765H593.83a7.2,7.2,0,0,1,7.2,7.19Z"/><ellipse class="cls-7" cx="458.14" cy="665.94" rx="33.01" ry="32.98"/><ellipse class="cls-12" cx="456.14" cy="668.94" rx="17.48" ry="17.46"/><polyline class="cls-13" points="458.14 665.74 480.97 772.22 478.18 1000.35"/><ellipse class="cls-14" cx="459.14" cy="664.94" rx="17.48" ry="17.46"/><polygon class="cls-15" points="823.77 1000.35 588.25 1000.35 176.23 1000.35 176.23 0 823.77 0 823.77 1000.35"/><ellipse class="cls-12" cx="522.14" cy="374.94" rx="17.48" ry="17.46"/><ellipse class="cls-14" cx="526.14" cy="371.94" rx="17.48" ry="17.46"/><ellipse class="cls-7" cx="486.14" cy="519.94" rx="33.01" ry="32.98"/><ellipse class="cls-12" cx="484.14" cy="524.94" rx="17.48" ry="17.46"/><ellipse class="cls-14" cx="487.14" cy="520.94" rx="17.48" ry="17.46"/><ellipse class="cls-12" cx="555.14" cy="229.94" rx="17.48" ry="17.46"/><ellipse class="cls-14" cx="559.14" cy="226.94" rx="17.48" ry="17.46"/><ellipse class="cls-7" cx="487.14" cy="520.94" rx="33.01" ry="32.98"/><ellipse class="cls-12" cx="485.14" cy="523.94" rx="17.48" ry="17.46"/><polyline class="cls-16" points="486.62 520.42 515.66 772.22 514.83 1000.35"/><ellipse class="cls-14" cx="488.14" cy="519.94" rx="17.48" ry="17.46"/><ellipse class="cls-7" cx="527.14" cy="373.94" rx="33.01" ry="32.98"/><ellipse class="cls-12" cx="525.14" cy="376.94" rx="17.48" ry="17.46"/><polyline class="cls-17" points="526.8 374.71 550.35 772.22 551.57 1000.35"/><ellipse class="cls-14" cx="528.14" cy="372.94" rx="17.48" ry="17.46"/><ellipse class="cls-7" cx="557.14" cy="229.94" rx="33.01" ry="32.98"/><ellipse class="cls-12" cx="555.14" cy="232.94" rx="17.48" ry="17.46"/><polyline class="cls-18" points="558.83 228.38 585.03 772.22 588.25 1000.35"/><ellipse class="cls-14" cx="558.14" cy="228.94" rx="17.48" ry="17.46"/><path class="cls-19" d="M624.94,134c15,15.55,18.53,42.52,11.75,49s-21.32-9.84-36.3-25.4-40.16-25-33.38-31.58S610,118.47,624.94,134Z"/></svg>