<svg id="Layer_1" data-name="Layer 1"
    xmlns="http://www.w3.org/2000/svg" viewBox="0 0 1000 1000">
    <defs>
        <style>
          @-webkit-keyframes sound {
             0% {
        fill: green;
    }
    30% {
        fill: rgb(33, 141, 33);
    }
    50% {
        fill: rgb(85, 163, 85);
    }
    70% {
        fill: rgb(156, 194, 156);
    }
    80% {
        fill: rgb(179, 204, 179);
    }
    90% {
        fill: rgb(202, 211, 202);
    }
    100% {
        fill: rgb(221, 221, 221	);
    }
    }
        
        @keyframes sound {
             0% {
        fill: green;
    }
    30% {
        fill: rgb(33, 141, 33);
    }
    50% {
        fill: rgb(85, 163, 85);
    }
    70% {
        fill: rgb(156, 194, 156);
    }
    80% {
        fill: rgb(179, 204, 179);
    }
    90% {
        fill: rgb(202, 211, 202);
    }
    100% {
       fill: rgb(221, 221, 221	);
    }
        }
        .active {
            stroke: rgb(31, 187, 96) !important;
            animation: sound 2.5s linear; 
            -webkit-animation: sound 2.5s linear;
            <!-- stroke-dasharray: 100; -->
            transition: all 1s ease-in-out;
            -webkit-transition: all 1s ease-in-out;
        }
        
        
        .cls-1{fill:#606060;opacity:0.13;}.cls-2{fill:#dedede;}.cls-15,.cls-3,.cls-4{fill:#fff;}.cls-4{opacity:0.3;}.cls-5{opacity:0.03;}.cls-6{fill:#edab5a;}.cls-7{fill:#d4d4d4;}.cls-8{fill:#3d2425;}.cls-9{opacity:0.06;}.cls-10{fill:#b5b5b5;}.cls-11{fill:#8a786a;}.cls-12,.cls-13{fill:#adadad;}.cls-12{opacity:0.26;}.cls-14{fill:none;}.cls-15{opacity:0.19;}</style>
    </defs>
    <title>Artboard 1</title>
    <path class="cls-1" d="M679.72,218.74c7.8-40.51-11.78-103.8-84.08-116.1s-104.43,46.55-111.39,77.58l-.79,3.5-38.31-7.16a33.16,33.16,0,0,0,5.64-12.1c3.77-15.87-4.79-30.75-19.13-33.24-13.36-2.32-26.9,7-31.75,21.13a27.68,27.68,0,0,0-25.1,20.85,23.71,23.71,0,0,0,13.59,27.55c-2,14.62,6.23,27.72,19.59,30,14.34,2.48,29-8.37,32.79-24.24A30.88,30.88,0,0,0,441.2,194l38.28,7.15C473.6,226.9,463.17,272.41,451,325.79l-44-8.89a37.17,37.17,0,0,0,5.64-13.07c3.77-17.15-4.79-33.22-19.13-35.9-13.36-2.5-26.9,7.58-31.75,22.83-11.71.79-22.3,9.82-25.1,22.52s3.14,24.82,13.59,29.76c-2,15.79,6.23,29.94,19.59,32.44,14.34,2.68,29-9,32.79-26.19a36,36,0,0,0,.42-13.56l43.71,8.82C437.26,386.08,427,431.3,417.11,475.1l-38.29-8.37a42.06,42.06,0,0,0,5.64-14.15c3.77-18.57-4.79-36-19.13-38.89-13.36-2.71-26.9,8.21-31.75,24.73-11.71.86-22.3,10.64-25.1,24.39s3.14,26.89,13.59,32.24c-2,17.1,6.23,32.43,19.59,35.14,14.34,2.91,29-9.79,32.79-28.36a42.13,42.13,0,0,0,.42-14.69l37.67,8.24c-11.75,52.21-22.66,101.17-30.62,137.9l-34.77-8.36a45.72,45.72,0,0,0,5.26-14.52c3.52-19.06-4.47-36.92-17.84-39.9-12.46-2.78-25.09,8.42-29.61,25.37-10.93.88-20.8,10.91-23.41,25s2.93,27.59,12.68,33.08c-1.84,17.55,5.81,33.27,18.27,36.05,13.37,3,27.06-10,30.58-29.1a47.48,47.48,0,0,0,.39-15.07l34,8.18c-4.8,22.59-7.85,37.9-8.36,42.55-3.21,29.43,3.75,33.17,18.74,36.38,9.9,2.12,28.21,4.95,49.83,17.7l.26.16-.26.23a148,148,0,0,1,20.72,14.85l8.36,139.54L466,961.12h-.17a4.12,4.12,0,1,0,0,8.24h.06l-.55,41.14H595.07l-.55-41.14h.06a4.12,4.12,0,1,0,0-8.24h-.17c-1.23-91.18-2.07-153.67-2.33-173.38a7.23,7.23,0,0,0-2.81-13.89h-.71q0-3.45,0-6.8c.57-62.13,20.5-98.12,60.66-124.7,18.46-12.22,27.31-14.44,27.31-26.22,0-.09,0-.18,0-.27s0-.08,0-.12c0-9.89-1.76-26.5-5-46-5.41-32.23-15-72.46-27.63-103.78-20.35-50.29-40.7-118.78-37-138.58C615.34,282.71,669,274.39,679.72,218.74Z"/>
    <path id="g-switch" class="cls-2" d="M404.94,146.33a27.68,27.68,0,0,0-25.1,20.85,23.71,23.71,0,0,0,13.59,27.55c-2,14.62,6.23,27.72,19.59,30,14.34,2.48,29-8.37,32.79-24.24a29.26,29.26,0,0,0-3.39-22.5,33,33,0,0,0,13.39-19.59c3.77-15.87-4.79-30.75-19.13-33.24C423.33,122.88,409.8,132.21,404.94,146.33Z"/>
    <polygon class="cls-2" points="502.31 180.28 498.17 197.67 429.69 184.88 433.83 167.48 502.31 180.28"/>
    <path class="cls-3" d="M427.25,210.69c3.09.64,3.64,4.41.76,5.63-3.64,1.54-8.91,1.93-14.4.79s-10-3.57-12.36-6.37c-1.9-2.22.61-5.34,3.71-4.7l9.42,3.43a7.39,7.39,0,0,0,2,.42Z"/>
    <path class="cls-4" d="M420.55,140.92c-3.09-.64-3.64-4.41-.76-5.63,3.64-1.54,8.91-1.93,14.4-.79s10,3.57,12.36,6.37c1.9,2.22-.61,5.34-3.71,4.7l-9.42-3.43a7.39,7.39,0,0,0-2-.42Z"/>
    <ellipse class="cls-5" cx="418.6" cy="173.18" rx="21.1" ry="15.03"/>
    <path id="d-switch" class="cls-2" d="M366.75,284.73c-11.71.79-22.3,9.82-25.1,22.52s3.14,24.82,13.59,29.76c-2,15.79,6.23,29.94,19.59,32.44,14.34,2.68,29-9,32.79-26.19a33.78,33.78,0,0,0-3.39-24.3,35.85,35.85,0,0,0,13.39-21.16c3.77-17.15-4.79-33.22-19.13-35.9C385.15,259.4,371.61,269.48,366.75,284.73Z"/>
    <polygon class="cls-2" points="464.12 321.4 459.98 340.19 391.5 326.36 395.64 307.57 464.12 321.4"/>
    <path class="cls-3" d="M389.06,354.25a3.21,3.21,0,0,1,.76,6.08c-3.64,1.66-8.91,2.09-14.4.85s-10-3.86-12.36-6.88c-1.9-2.4.61-5.77,3.71-5.07l9.42,3.7a6.92,6.92,0,0,0,2,.46Z"/>
    <path class="cls-4" d="M382.36,278.88a3.21,3.21,0,0,1-.76-6.08c3.64-1.66,8.91-2.09,14.4-.85s10,3.86,12.36,6.88c1.9,2.4-.61,5.77-3.71,5.07l-9.42-3.7a6.92,6.92,0,0,0-2-.46Z"/>
    <ellipse class="cls-5" cx="380.41" cy="313.73" rx="21.1" ry="16.24"/>
    <path id="e-switch" class="cls-2" d="M310,589.81c-10.93.88-20.8,10.91-23.41,25s2.93,27.59,12.68,33.08c-1.84,17.55,5.81,33.27,18.27,36.05,13.37,3,27.06-10,30.58-29.1,1.85-10,.46-19.64-3.16-27,5.95-5.23,10.64-13.5,12.49-23.51,3.52-19.06-4.47-36.92-17.84-39.9C327.15,561.66,314.52,572.86,310,589.81Z"/>
    <polygon class="cls-2" points="400.81 630.56 396.95 651.44 333.08 636.08 336.93 615.2 400.81 630.56"/>
    <path class="cls-3" d="M330.8,667.07c2.88.77,3.4,5.29.71,6.76-3.39,1.85-8.31,2.32-13.43.95s-9.29-4.28-11.53-7.64c-1.77-2.66.57-6.41,3.46-5.64l8.79,4.11a5.6,5.6,0,0,0,1.85.51Z"/>
    <path class="cls-4" d="M324.55,583.31c-2.88-.77-3.4-5.29-.71-6.76,3.39-1.85,8.31-2.32,13.43-.95s9.29,4.28,11.53,7.64c1.77,2.66-.57,6.41-3.46,5.64l-8.79-4.11a5.6,5.6,0,0,0-1.85-.51Z"/>
    <ellipse class="cls-5" cx="322.73" cy="622.04" rx="19.68" ry="18.04"/>
    <path id="a-switch" class="cls-2" d="M338.61,432.38c-11.71.86-22.3,10.64-25.1,24.39s3.14,26.89,13.59,32.24c-2,17.1,6.23,32.43,19.59,35.14,14.34,2.91,29-9.79,32.79-28.36,2-9.76.49-19.14-3.39-26.32,6.37-5.1,11.41-13.16,13.39-22.92,3.77-18.57-4.79-36-19.13-38.89C357,404.95,343.47,415.86,338.61,432.38Z"/>
    <polygon class="cls-2" points="435.98 472.1 431.84 492.45 363.36 477.48 367.5 457.13 435.98 472.1"/>
    <path class="cls-3" d="M360.93,507.69a3.56,3.56,0,0,1,.76,6.58c-3.64,1.8-8.91,2.26-14.4.92s-10-4.18-12.36-7.45a3.56,3.56,0,0,1,3.71-5.49l9.42,4a6.48,6.48,0,0,0,2,.49Z"/>
    <path class="cls-4" d="M354.22,426a3.56,3.56,0,0,1-.76-6.58c3.64-1.8,8.91-2.26,14.4-.92s10,4.18,12.36,7.45a3.56,3.56,0,0,1-3.71,5.49l-9.42-4a6.48,6.48,0,0,0-2-.49Z"/>
    <ellipse class="cls-5" cx="352.27" cy="463.8" rx="21.1" ry="17.59"/>
    <path class="cls-6" d="M530.15,689.41c-24.7,23.11-62,32.33-87.45,55.18A158.06,158.06,0,0,1,478,773.44H593.7c-2.14-70.09,17.67-109.15,60.52-137.51,18.46-12.22,27.31-14.44,27.31-26.22,0-9.89-1.76-26.5-5-46-20.89,10.15-40.31,24.1-61.93,35.28C575.37,619.07,561.3,660.27,530.15,689.41Z"/>
    <path class="cls-6" d="M611.91,321.33c8.46-44.65,62.12-53,72.83-108.61,7.8-40.51-11.78-103.8-84.08-116.1s-104.43,46.55-111.39,77.58S377.35,661.08,374.14,690.51s3.75,33.17,18.74,36.38c9.9,2.12,28.21,4.95,49.83,17.7,25.43-22.86,62.75-32.08,87.45-55.18,31.15-29.14,45.22-70.35,84.42-90.45,21.62-11.18,41-25.13,61.93-35.28-5.41-32.23-15-72.46-27.63-103.78C628.51,409.61,608.16,341.13,611.91,321.33Z"/>
    <ellipse class="cls-7" cx="557.04" cy="228.52" rx="33.17" ry="33.14"/>
    <ellipse class="cls-7" cx="525.94" cy="374.1" rx="33.17" ry="33.14"/>
    <path class="cls-8" d="M597,775.06H473.45s-1.2,89.2-3.08,229.41H600.09C598.21,864.27,597,775.06,597,775.06Z"/>
    <path class="cls-9" d="M530.15,689.8c-24.7,23.11-62,32.33-87.45,55.18A158.06,158.06,0,0,1,478,773.83H593.7c-2.14-70.09,17.67-109.15,60.52-137.51,18.46-12.22,27.31-14.44,27.31-26.22,0-9.89-1.76-26.5-5-46-20.89,10.15-40.31,24.1-61.93,35.28C575.37,619.45,561.3,660.65,530.15,689.8Z"/>
    <path class="cls-10" d="M603.72,959.21a4.12,4.12,0,0,1-4.12,4.12H470.87a4.12,4.12,0,0,1-4.12-4.12h0a4.12,4.12,0,0,1,4.12-4.12H599.6a4.12,4.12,0,0,1,4.12,4.12Z"/>
    <path class="cls-11" d="M601.53,775.05a7.23,7.23,0,0,1-7.24,7.23H475.9a7.23,7.23,0,0,1-7.24-7.23h0a7.23,7.23,0,0,1,7.24-7.23h118.4a7.23,7.23,0,0,1,7.24,7.23Z"/>
    <ellipse class="cls-7" cx="457.93" cy="668.25" rx="33.17" ry="33.14"/>
    <ellipse class="cls-12" cx="455.92" cy="671.26" rx="17.56" ry="17.55"/>
    <polygon id="E" class="cls-3" points="480.43 1004.35 475.7 1004.29 478.51 775.29 455.62 668.54 460.24 667.55 483.24 774.82 483.24 775.08 480.43 1004.35"/>
    <ellipse class="cls-13" cx="458.93" cy="667.24" rx="17.56" ry="17.55"/>
    <polygon class="cls-14" points="825.37 1004.32 588.69 1004.32 174.63 1004.32 174.63 -1 825.37 -1 825.37 1004.32"/>
    <ellipse class="cls-12" cx="522.25" cy="375.8" rx="17.56" ry="17.55"/>
    <ellipse class="cls-13" cx="526.27" cy="372.79" rx="17.56" ry="17.55"/>
    <ellipse class="cls-7" cx="486.07" cy="521.52" rx="33.17" ry="33.14"/>
    <ellipse class="cls-12" cx="484.06" cy="526.55" rx="17.56" ry="17.55"/>
    <ellipse class="cls-13" cx="487.07" cy="522.53" rx="17.56" ry="17.55"/>
    <ellipse class="cls-12" cx="555.41" cy="230.08" rx="17.56" ry="17.55"/>
    <ellipse class="cls-13" cx="559.43" cy="227.07" rx="17.56" ry="17.55"/>
    <ellipse class="cls-7" cx="487.07" cy="522.53" rx="33.17" ry="33.14"/>
    <ellipse class="cls-12" cx="485.06" cy="525.54" rx="17.56" ry="17.55"/>
    <polygon id="A" class="cls-3" points="516.48 1004.32 513.33 1004.31 514.16 775.14 484.98 522.19 488.11 521.82 517.31 774.97 517.31 775.06 516.48 1004.32"/>
    <ellipse class="cls-13" cx="488.08" cy="521.52" rx="17.56" ry="17.55"/>
    <ellipse class="cls-7" cx="527.27" cy="374.8" rx="33.17" ry="33.14"/>
    <ellipse class="cls-12" cx="525.26" cy="377.81" rx="17.56" ry="17.55"/>
    <polygon id="D" class="cls-3" points="552.05 1008.11 550.81 775.7 526.82 370.82 529.86 370.64 553.85 775.6 555.09 1008.09 552.05 1008.11"/>
    <ellipse class="cls-13" cx="528.28" cy="373.79" rx="17.56" ry="17.55"/>
    <ellipse class="cls-7" cx="557.42" cy="230.08" rx="33.17" ry="33.14"/>
    <ellipse class="cls-12" cx="555.41" cy="233.1" rx="17.56" ry="17.55"/>
    <polygon id="G" class="cls-3" points="588.65 1008.12 585.4 778.13 558.98 229.91 561.7 229.78 588.12 778.04 591.37 1008.08 588.65 1008.12"/>
    <ellipse class="cls-13" cx="558.43" cy="229.08" rx="17.56" ry="17.55"/>
    <path class="cls-15" d="M625.56,133.69c15.06,15.63,18.62,42.73,11.81,49.29s-21.42-9.89-36.48-25.52-40.36-25.17-33.55-31.74S610.5,118.06,625.56,133.69Z"/>
</svg>